<svg width="60" height="84" viewBox="0 0 60 84" fill="none" xmlns="http://www.w3.org/2000/svg">
<path opacity="0.1" d="M50.8242 0.550781H9.125C6.84635 0.550781 4.89323 1.36458 3.26562 2.99219C1.63802 4.61979 0.824219 6.60547 0.824219 8.94922V75.5508C0.824219 77.8945 1.63802 79.8802 3.26562 81.5078C4.89323 83.1354 6.84635 83.9492 9.125 83.9492H50.8242C53.1029 83.9492 55.056 83.1354 56.6836 81.5078C58.3112 79.8802 59.125 77.8945 59.125 75.5508V8.94922C59.125 6.60547 58.3112 4.61979 56.6836 2.99219C55.056 1.36458 53.1029 0.550781 50.8242 0.550781ZM9.125 75.5508V8.94922H50.8242V75.5508H9.125ZM34.125 67.25C34.125 68.4219 33.7018 69.431 32.8555 70.2773C32.0742 71.0586 31.0977 71.4492 29.9258 71.4492C28.819 71.4492 27.8424 71.0586 26.9961 70.2773C26.2148 69.431 25.8242 68.4219 25.8242 67.25C25.8242 66.0781 26.2148 65.1016 26.9961 64.3203C27.8424 63.474 28.819 63.0508 29.9258 63.0508C31.0977 63.0508 32.0742 63.474 32.8555 64.3203C33.7018 65.1016 34.125 66.0781 34.125 67.25Z" fill="black"/>
</svg>
