<svg width="58" height="59" viewBox="0 0 58 59" fill="none" xmlns="http://www.w3.org/2000/svg">
<path d="M36.625 2.78125C36.055 1.64125 35.2 1.35625 34.8438 1.35625C31.4 1.2375 24.2275 1 23.0875 1C21.9475 1 21.425 1.7125 21.3063 2.06875L20.2375 9.90625L19.8813 10.2625C18.1713 10.5475 16.7938 11.8062 16.3188 12.4C15.25 11.925 12.6138 10.405 10.6188 9.55C8.62375 8.695 7.65 9.43125 7.4125 9.90625C5.86875 12.5187 2.5675 18.1712 1.7125 19.8812C0.8575 21.5912 1.59375 22.7312 2.06875 23.0875L7.4125 27.3625C6.8425 29.0725 7.175 30.925 7.4125 31.6375L3.1375 35.2C1.4275 36.34 1 37.3375 1 37.6937C2.54375 40.6625 5.91625 46.9562 7.05625 48.3812C8.19625 49.8062 9.19375 49.925 9.55 49.8062L16.3188 47.3125C16.8888 48.1675 18.9313 49.0938 19.8813 49.45C20.2375 51.35 21.0213 55.435 21.3063 56.575C21.5913 57.715 22.375 58 22.7313 58H33.0625C36.2688 58 36.2688 56.9312 36.625 56.575C36.91 56.29 37.4563 51.4688 37.6938 49.0938C39.1188 49.0938 40.9 47.6687 41.6125 46.9562L46.9563 49.0938C48.6663 49.9487 49.8063 49.45 50.1625 49.0938C51.35 46.9562 54.0813 42.1112 55.5063 39.8312C56.9313 37.5513 56.1 36.2687 55.5063 35.9125L50.1625 31.6375C50.7325 30.2125 50.4 28.1937 50.1625 27.3625L55.15 23.4437C56.86 22.0187 56.8125 20.95 56.575 20.5938C54.7938 17.3875 51.0175 10.7612 50.1625 9.90625C49.3075 9.05125 47.9063 9.3125 47.3125 9.55L40.9 12.0437C40.615 11.4738 38.6438 10.3812 37.6938 9.90625L36.625 2.78125Z" fill="#FA7A18" stroke="#FA7A18"/>
<circle cx="28.7863" cy="29.4997" r="15.675" fill="white"/>
<mask id="mask0" mask-type="alpha" maskUnits="userSpaceOnUse" x="13" y="13" width="32" height="33">
<circle cx="28.7863" cy="29.4997" r="15.675" fill="white"/>
</mask>
<g mask="url(#mask0)">
<path d="M20.8884 37.8378L18.1592 40.2479C17.3367 40.9744 17.2531 42.2279 17.972 43.0571L20.0121 45.4104C20.8554 46.3831 22.3846 46.3174 23.1413 45.276L27.6918 39.0133C27.9401 38.6716 28.0738 38.2601 28.0738 37.8377V17.6657C28.0738 17.5351 28.0633 17.4029 28.0292 17.2769C27.737 16.1958 27.0908 16.7954 26.7281 17.3431C26.6733 17.426 26.6307 17.5138 26.5932 17.6057C25.7274 19.7261 23.6906 24.6757 22.0176 28.6157C20.9213 31.1975 21.0354 33.3261 21.4777 34.7741C21.7982 35.8237 21.711 37.1113 20.8884 37.8378Z" fill="#008B3C" stroke="#008B3C"/>
<path d="M37.0423 37.8378L39.7714 40.2479C40.594 40.9744 40.6776 42.2279 39.9587 43.0571L37.9185 45.4104C37.0753 46.3831 35.5461 46.3174 34.7894 45.276L30.2389 39.0133C29.9906 38.6716 29.8568 38.2601 29.8568 37.8377V17.6657C29.8568 17.5351 29.8674 17.4029 29.9015 17.2769C30.1937 16.1958 30.8399 16.7954 31.2025 17.3431C31.2574 17.426 31.2999 17.5138 31.3375 17.6057C32.2033 19.7261 34.24 24.6757 35.9131 28.6157C37.0094 31.1975 36.8952 33.3261 36.453 34.7741C36.1325 35.8237 36.2197 37.1113 37.0423 37.8378Z" fill="#008B3C" stroke="#008B3C"/>
</g>
</svg>
